<svg xmlns="http://www.w3.org/2000/svg" xmlns:xlink="http://www.w3.org/1999/xlink" width="500" zoomAndPan="magnify" viewBox="0 0 375 149.999998" height="200" preserveAspectRatio="xMidYMid meet" version="1.0"><defs><filter x="0%" y="0%" width="100%" height="100%" id="d8527efc56"><feColorMatrix values="0 0 0 0 1 0 0 0 0 1 0 0 0 0 1 0 0 0 1 0" color-interpolation-filters="sRGB"/></filter><g/><clipPath id="c8e86640aa"><path d="M 63.976562 60.757812 L 81.09375 60.757812 L 81.09375 76.878906 L 63.976562 76.878906 Z M 63.976562 60.757812 " clip-rule="nonzero"/></clipPath><clipPath id="f7c2bfe1bc"><path d="M 0.976562 0.757812 L 18.09375 0.757812 L 18.09375 16.878906 L 0.976562 16.878906 Z M 0.976562 0.757812 " clip-rule="nonzero"/></clipPath><clipPath id="9e83a08998"><rect x="0" width="19" y="0" height="17"/></clipPath><clipPath id="289c8c7b7a"><path d="M 0 0 L 375 0 L 375 150 L 0 150 Z M 0 0 " clip-rule="nonzero"/></clipPath><linearGradient x1="-10.323797" gradientTransform="matrix(0.852579, 0, 0, 0.853608, 8.801861, 17.418802)" y1="46.5" x2="429.517869" gradientUnits="userSpaceOnUse" y2="46.5" id="f16d21394b"><stop stop-opacity="1" stop-color="rgb(0%, 59.21936%, 69.799805%)" offset="0"/><stop stop-opacity="1" stop-color="rgb(0%, 59.21936%, 69.799805%)" offset="0.015625"/><stop stop-opacity="1" stop-color="rgb(0%, 59.21936%, 69.799805%)" offset="0.0234375"/><stop stop-opacity="1" stop-color="rgb(0.198364%, 59.32312%, 69.654846%)" offset="0.0273437"/><stop stop-opacity="1" stop-color="rgb(0.398254%, 59.428406%, 69.511414%)" offset="0.03125"/><stop stop-opacity="1" stop-color="rgb(0.602722%, 59.535217%, 69.363403%)" offset="0.0351562"/><stop stop-opacity="1" stop-color="rgb(0.80719%, 59.642029%, 69.215393%)" offset="0.0390625"/><stop stop-opacity="1" stop-color="rgb(1.011658%, 59.74884%, 69.067383%)" offset="0.0429688"/><stop stop-opacity="1" stop-color="rgb(1.216125%, 59.855652%, 68.920898%)" offset="0.046875"/><stop stop-opacity="1" stop-color="rgb(1.419067%, 59.962463%, 68.772888%)" offset="0.0507812"/><stop stop-opacity="1" stop-color="rgb(1.623535%, 60.070801%, 68.626404%)" offset="0.0546875"/><stop stop-opacity="1" stop-color="rgb(1.828003%, 60.177612%, 68.478394%)" offset="0.0585938"/><stop stop-opacity="1" stop-color="rgb(2.032471%, 60.284424%, 68.330383%)" offset="0.0625"/><stop stop-opacity="1" stop-color="rgb(2.236938%, 60.391235%, 68.182373%)" offset="0.0664062"/><stop stop-opacity="1" stop-color="rgb(2.441406%, 60.498047%, 68.035889%)" offset="0.0703125"/><stop stop-opacity="1" stop-color="rgb(2.644348%, 60.604858%, 67.887878%)" offset="0.0742188"/><stop stop-opacity="1" stop-color="rgb(2.848816%, 60.71167%, 67.741394%)" offset="0.078125"/><stop stop-opacity="1" stop-color="rgb(3.053284%, 60.818481%, 67.593384%)" offset="0.0820312"/><stop stop-opacity="1" stop-color="rgb(3.257751%, 60.926819%, 67.445374%)" offset="0.0859375"/><stop stop-opacity="1" stop-color="rgb(3.462219%, 61.03363%, 67.297363%)" offset="0.0898437"/><stop stop-opacity="1" stop-color="rgb(3.666687%, 61.140442%, 67.150879%)" offset="0.09375"/><stop stop-opacity="1" stop-color="rgb(3.871155%, 61.247253%, 67.002869%)" offset="0.0976562"/><stop stop-opacity="1" stop-color="rgb(4.075623%, 61.354065%, 66.856384%)" offset="0.101562"/><stop stop-opacity="1" stop-color="rgb(4.278564%, 61.460876%, 66.708374%)" offset="0.105469"/><stop stop-opacity="1" stop-color="rgb(4.483032%, 61.567688%, 66.56189%)" offset="0.109375"/><stop stop-opacity="1" stop-color="rgb(4.6875%, 61.6745%, 66.413879%)" offset="0.113281"/><stop stop-opacity="1" stop-color="rgb(4.891968%, 61.781311%, 66.265869%)" offset="0.117188"/><stop stop-opacity="1" stop-color="rgb(5.096436%, 61.888123%, 66.117859%)" offset="0.121094"/><stop stop-opacity="1" stop-color="rgb(5.300903%, 61.99646%, 65.971375%)" offset="0.125"/><stop stop-opacity="1" stop-color="rgb(5.503845%, 62.103271%, 65.823364%)" offset="0.128906"/><stop stop-opacity="1" stop-color="rgb(5.708313%, 62.210083%, 65.67688%)" offset="0.132812"/><stop stop-opacity="1" stop-color="rgb(5.912781%, 62.316895%, 65.52887%)" offset="0.136719"/><stop stop-opacity="1" stop-color="rgb(6.117249%, 62.423706%, 65.380859%)" offset="0.140625"/><stop stop-opacity="1" stop-color="rgb(6.321716%, 62.530518%, 65.232849%)" offset="0.144531"/><stop stop-opacity="1" stop-color="rgb(6.526184%, 62.637329%, 65.086365%)" offset="0.148438"/><stop stop-opacity="1" stop-color="rgb(6.729126%, 62.744141%, 64.938354%)" offset="0.152344"/><stop stop-opacity="1" stop-color="rgb(6.933594%, 62.850952%, 64.79187%)" offset="0.15625"/><stop stop-opacity="1" stop-color="rgb(7.138062%, 62.957764%, 64.64386%)" offset="0.160156"/><stop stop-opacity="1" stop-color="rgb(7.342529%, 63.066101%, 64.49585%)" offset="0.164062"/><stop stop-opacity="1" stop-color="rgb(7.546997%, 63.172913%, 64.347839%)" offset="0.167969"/><stop stop-opacity="1" stop-color="rgb(7.751465%, 63.279724%, 64.201355%)" offset="0.171875"/><stop stop-opacity="1" stop-color="rgb(7.955933%, 63.386536%, 64.053345%)" offset="0.175781"/><stop stop-opacity="1" stop-color="rgb(8.1604%, 63.493347%, 63.90686%)" offset="0.179687"/><stop stop-opacity="1" stop-color="rgb(8.363342%, 63.600159%, 63.75885%)" offset="0.183594"/><stop stop-opacity="1" stop-color="rgb(8.56781%, 63.70697%, 63.61084%)" offset="0.1875"/><stop stop-opacity="1" stop-color="rgb(8.772278%, 63.813782%, 63.46283%)" offset="0.191406"/><stop stop-opacity="1" stop-color="rgb(8.976746%, 63.922119%, 63.316345%)" offset="0.195312"/><stop stop-opacity="1" stop-color="rgb(9.181213%, 64.028931%, 63.168335%)" offset="0.199219"/><stop stop-opacity="1" stop-color="rgb(9.385681%, 64.135742%, 63.021851%)" offset="0.203125"/><stop stop-opacity="1" stop-color="rgb(9.588623%, 64.242554%, 62.87384%)" offset="0.207031"/><stop stop-opacity="1" stop-color="rgb(9.793091%, 64.349365%, 62.72583%)" offset="0.210938"/><stop stop-opacity="1" stop-color="rgb(9.997559%, 64.456177%, 62.57782%)" offset="0.214844"/><stop stop-opacity="1" stop-color="rgb(10.202026%, 64.562988%, 62.431335%)" offset="0.21875"/><stop stop-opacity="1" stop-color="rgb(10.406494%, 64.6698%, 62.283325%)" offset="0.222656"/><stop stop-opacity="1" stop-color="rgb(10.610962%, 64.776611%, 62.136841%)" offset="0.226562"/><stop stop-opacity="1" stop-color="rgb(10.81543%, 64.883423%, 61.988831%)" offset="0.230469"/><stop stop-opacity="1" stop-color="rgb(11.019897%, 64.99176%, 61.84082%)" offset="0.234375"/><stop stop-opacity="1" stop-color="rgb(11.222839%, 65.098572%, 61.69281%)" offset="0.238281"/><stop stop-opacity="1" stop-color="rgb(11.427307%, 65.205383%, 61.546326%)" offset="0.242188"/><stop stop-opacity="1" stop-color="rgb(11.631775%, 65.312195%, 61.398315%)" offset="0.246094"/><stop stop-opacity="1" stop-color="rgb(11.836243%, 65.419006%, 61.251831%)" offset="0.25"/><stop stop-opacity="1" stop-color="rgb(12.04071%, 65.525818%, 61.103821%)" offset="0.253906"/><stop stop-opacity="1" stop-color="rgb(12.245178%, 65.632629%, 60.955811%)" offset="0.257812"/><stop stop-opacity="1" stop-color="rgb(12.44812%, 65.739441%, 60.8078%)" offset="0.261719"/><stop stop-opacity="1" stop-color="rgb(12.652588%, 65.847778%, 60.661316%)" offset="0.265625"/><stop stop-opacity="1" stop-color="rgb(12.857056%, 65.95459%, 60.513306%)" offset="0.269531"/><stop stop-opacity="1" stop-color="rgb(13.061523%, 66.061401%, 60.366821%)" offset="0.273437"/><stop stop-opacity="1" stop-color="rgb(13.265991%, 66.168213%, 60.218811%)" offset="0.277344"/><stop stop-opacity="1" stop-color="rgb(13.470459%, 66.275024%, 60.070801%)" offset="0.28125"/><stop stop-opacity="1" stop-color="rgb(13.674927%, 66.381836%, 59.922791%)" offset="0.285156"/><stop stop-opacity="1" stop-color="rgb(13.879395%, 66.488647%, 59.776306%)" offset="0.289062"/><stop stop-opacity="1" stop-color="rgb(14.082336%, 66.595459%, 59.628296%)" offset="0.292969"/><stop stop-opacity="1" stop-color="rgb(14.286804%, 66.702271%, 59.481812%)" offset="0.296875"/><stop stop-opacity="1" stop-color="rgb(14.491272%, 66.809082%, 59.333801%)" offset="0.300781"/><stop stop-opacity="1" stop-color="rgb(14.69574%, 66.917419%, 59.187317%)" offset="0.304688"/><stop stop-opacity="1" stop-color="rgb(14.900208%, 67.024231%, 59.039307%)" offset="0.308594"/><stop stop-opacity="1" stop-color="rgb(15.104675%, 67.131042%, 58.891296%)" offset="0.3125"/><stop stop-opacity="1" stop-color="rgb(15.307617%, 67.237854%, 58.743286%)" offset="0.316406"/><stop stop-opacity="1" stop-color="rgb(15.512085%, 67.344666%, 58.596802%)" offset="0.320312"/><stop stop-opacity="1" stop-color="rgb(15.716553%, 67.451477%, 58.448792%)" offset="0.324219"/><stop stop-opacity="1" stop-color="rgb(15.921021%, 67.558289%, 58.302307%)" offset="0.328125"/><stop stop-opacity="1" stop-color="rgb(16.125488%, 67.6651%, 58.154297%)" offset="0.332031"/><stop stop-opacity="1" stop-color="rgb(16.329956%, 67.773438%, 58.006287%)" offset="0.335938"/><stop stop-opacity="1" stop-color="rgb(16.534424%, 67.880249%, 57.858276%)" offset="0.339844"/><stop stop-opacity="1" stop-color="rgb(16.738892%, 67.987061%, 57.711792%)" offset="0.34375"/><stop stop-opacity="1" stop-color="rgb(16.941833%, 68.093872%, 57.563782%)" offset="0.347656"/><stop stop-opacity="1" stop-color="rgb(17.146301%, 68.200684%, 57.417297%)" offset="0.351562"/><stop stop-opacity="1" stop-color="rgb(17.350769%, 68.307495%, 57.269287%)" offset="0.355469"/><stop stop-opacity="1" stop-color="rgb(17.555237%, 68.414307%, 57.121277%)" offset="0.359375"/><stop stop-opacity="1" stop-color="rgb(17.759705%, 68.521118%, 56.973267%)" offset="0.363281"/><stop stop-opacity="1" stop-color="rgb(17.964172%, 68.62793%, 56.826782%)" offset="0.367188"/><stop stop-opacity="1" stop-color="rgb(18.167114%, 68.734741%, 56.678772%)" offset="0.371094"/><stop stop-opacity="1" stop-color="rgb(18.371582%, 68.843079%, 56.532288%)" offset="0.375"/><stop stop-opacity="1" stop-color="rgb(18.57605%, 68.94989%, 56.384277%)" offset="0.378906"/><stop stop-opacity="1" stop-color="rgb(18.780518%, 69.056702%, 56.236267%)" offset="0.382813"/><stop stop-opacity="1" stop-color="rgb(18.984985%, 69.163513%, 56.088257%)" offset="0.386719"/><stop stop-opacity="1" stop-color="rgb(19.189453%, 69.270325%, 55.941772%)" offset="0.390625"/><stop stop-opacity="1" stop-color="rgb(19.392395%, 69.377136%, 55.793762%)" offset="0.394531"/><stop stop-opacity="1" stop-color="rgb(19.596863%, 69.483948%, 55.647278%)" offset="0.398438"/><stop stop-opacity="1" stop-color="rgb(19.801331%, 69.590759%, 55.499268%)" offset="0.402344"/><stop stop-opacity="1" stop-color="rgb(20.005798%, 69.699097%, 55.351257%)" offset="0.40625"/><stop stop-opacity="1" stop-color="rgb(20.210266%, 69.805908%, 55.203247%)" offset="0.410156"/><stop stop-opacity="1" stop-color="rgb(20.414734%, 69.91272%, 55.056763%)" offset="0.414063"/><stop stop-opacity="1" stop-color="rgb(20.619202%, 70.019531%, 54.908752%)" offset="0.417969"/><stop stop-opacity="1" stop-color="rgb(20.823669%, 70.126343%, 54.762268%)" offset="0.421875"/><stop stop-opacity="1" stop-color="rgb(21.026611%, 70.233154%, 54.614258%)" offset="0.425781"/><stop stop-opacity="1" stop-color="rgb(21.231079%, 70.339966%, 54.466248%)" offset="0.429688"/><stop stop-opacity="1" stop-color="rgb(21.435547%, 70.446777%, 54.318237%)" offset="0.433594"/><stop stop-opacity="1" stop-color="rgb(21.640015%, 70.553589%, 54.171753%)" offset="0.4375"/><stop stop-opacity="1" stop-color="rgb(21.844482%, 70.6604%, 54.023743%)" offset="0.441406"/><stop stop-opacity="1" stop-color="rgb(22.04895%, 70.768738%, 53.877258%)" offset="0.445312"/><stop stop-opacity="1" stop-color="rgb(22.251892%, 70.875549%, 53.729248%)" offset="0.449219"/><stop stop-opacity="1" stop-color="rgb(22.45636%, 70.982361%, 53.581238%)" offset="0.453125"/><stop stop-opacity="1" stop-color="rgb(22.660828%, 71.089172%, 53.433228%)" offset="0.457031"/><stop stop-opacity="1" stop-color="rgb(22.865295%, 71.195984%, 53.286743%)" offset="0.460938"/><stop stop-opacity="1" stop-color="rgb(23.069763%, 71.302795%, 53.138733%)" offset="0.464844"/><stop stop-opacity="1" stop-color="rgb(23.274231%, 71.409607%, 52.992249%)" offset="0.46875"/><stop stop-opacity="1" stop-color="rgb(23.478699%, 71.516418%, 52.844238%)" offset="0.472656"/><stop stop-opacity="1" stop-color="rgb(23.683167%, 71.624756%, 52.697754%)" offset="0.476562"/><stop stop-opacity="1" stop-color="rgb(23.886108%, 71.731567%, 52.549744%)" offset="0.480469"/><stop stop-opacity="1" stop-color="rgb(24.090576%, 71.838379%, 52.401733%)" offset="0.484375"/><stop stop-opacity="1" stop-color="rgb(24.295044%, 71.94519%, 52.253723%)" offset="0.488281"/><stop stop-opacity="1" stop-color="rgb(24.499512%, 72.052002%, 52.107239%)" offset="0.492187"/><stop stop-opacity="1" stop-color="rgb(24.703979%, 72.158813%, 51.959229%)" offset="0.496094"/><stop stop-opacity="1" stop-color="rgb(24.908447%, 72.265625%, 51.812744%)" offset="0.5"/><stop stop-opacity="1" stop-color="rgb(25.111389%, 72.372437%, 51.664734%)" offset="0.503906"/><stop stop-opacity="1" stop-color="rgb(25.315857%, 72.479248%, 51.516724%)" offset="0.507812"/><stop stop-opacity="1" stop-color="rgb(25.520325%, 72.58606%, 51.368713%)" offset="0.511719"/><stop stop-opacity="1" stop-color="rgb(25.724792%, 72.694397%, 51.222229%)" offset="0.515625"/><stop stop-opacity="1" stop-color="rgb(25.92926%, 72.801208%, 51.074219%)" offset="0.519531"/><stop stop-opacity="1" stop-color="rgb(26.133728%, 72.90802%, 50.927734%)" offset="0.523438"/><stop stop-opacity="1" stop-color="rgb(26.338196%, 73.014832%, 50.779724%)" offset="0.527344"/><stop stop-opacity="1" stop-color="rgb(26.542664%, 73.121643%, 50.631714%)" offset="0.53125"/><stop stop-opacity="1" stop-color="rgb(26.745605%, 73.228455%, 50.483704%)" offset="0.535156"/><stop stop-opacity="1" stop-color="rgb(26.950073%, 73.335266%, 50.337219%)" offset="0.539062"/><stop stop-opacity="1" stop-color="rgb(27.154541%, 73.442078%, 50.189209%)" offset="0.542969"/><stop stop-opacity="1" stop-color="rgb(27.359009%, 73.550415%, 50.042725%)" offset="0.546875"/><stop stop-opacity="1" stop-color="rgb(27.563477%, 73.657227%, 49.894714%)" offset="0.550781"/><stop stop-opacity="1" stop-color="rgb(27.767944%, 73.764038%, 49.746704%)" offset="0.554687"/><stop stop-opacity="1" stop-color="rgb(27.970886%, 73.87085%, 49.598694%)" offset="0.558594"/><stop stop-opacity="1" stop-color="rgb(28.175354%, 73.977661%, 49.452209%)" offset="0.5625"/><stop stop-opacity="1" stop-color="rgb(28.379822%, 74.084473%, 49.304199%)" offset="0.566406"/><stop stop-opacity="1" stop-color="rgb(28.58429%, 74.191284%, 49.157715%)" offset="0.570312"/><stop stop-opacity="1" stop-color="rgb(28.788757%, 74.298096%, 49.009705%)" offset="0.574219"/><stop stop-opacity="1" stop-color="rgb(28.993225%, 74.404907%, 48.861694%)" offset="0.578125"/><stop stop-opacity="1" stop-color="rgb(29.197693%, 74.511719%, 48.713684%)" offset="0.582031"/><stop stop-opacity="1" stop-color="rgb(29.402161%, 74.620056%, 48.5672%)" offset="0.585937"/><stop stop-opacity="1" stop-color="rgb(29.605103%, 74.726868%, 48.419189%)" offset="0.589844"/><stop stop-opacity="1" stop-color="rgb(29.80957%, 74.833679%, 48.272705%)" offset="0.59375"/><stop stop-opacity="1" stop-color="rgb(30.014038%, 74.940491%, 48.124695%)" offset="0.597656"/><stop stop-opacity="1" stop-color="rgb(30.218506%, 75.047302%, 47.976685%)" offset="0.601562"/><stop stop-opacity="1" stop-color="rgb(30.422974%, 75.154114%, 47.828674%)" offset="0.605469"/><stop stop-opacity="1" stop-color="rgb(30.627441%, 75.260925%, 47.68219%)" offset="0.609375"/><stop stop-opacity="1" stop-color="rgb(30.830383%, 75.367737%, 47.53418%)" offset="0.613281"/><stop stop-opacity="1" stop-color="rgb(31.034851%, 75.476074%, 47.387695%)" offset="0.617187"/><stop stop-opacity="1" stop-color="rgb(31.239319%, 75.582886%, 47.239685%)" offset="0.621094"/><stop stop-opacity="1" stop-color="rgb(31.443787%, 75.689697%, 47.091675%)" offset="0.625"/><stop stop-opacity="1" stop-color="rgb(31.648254%, 75.796509%, 46.943665%)" offset="0.628906"/><stop stop-opacity="1" stop-color="rgb(31.852722%, 75.90332%, 46.79718%)" offset="0.632812"/><stop stop-opacity="1" stop-color="rgb(32.055664%, 76.010132%, 46.64917%)" offset="0.636719"/><stop stop-opacity="1" stop-color="rgb(32.260132%, 76.116943%, 46.502686%)" offset="0.640625"/><stop stop-opacity="1" stop-color="rgb(32.4646%, 76.223755%, 46.354675%)" offset="0.644531"/><stop stop-opacity="1" stop-color="rgb(32.669067%, 76.330566%, 46.208191%)" offset="0.648437"/><stop stop-opacity="1" stop-color="rgb(32.873535%, 76.437378%, 46.060181%)" offset="0.652344"/><stop stop-opacity="1" stop-color="rgb(33.078003%, 76.545715%, 45.91217%)" offset="0.65625"/><stop stop-opacity="1" stop-color="rgb(33.282471%, 76.652527%, 45.76416%)" offset="0.660156"/><stop stop-opacity="1" stop-color="rgb(33.486938%, 76.759338%, 45.617676%)" offset="0.664062"/><stop stop-opacity="1" stop-color="rgb(33.68988%, 76.86615%, 45.469666%)" offset="0.667969"/><stop stop-opacity="1" stop-color="rgb(33.894348%, 76.972961%, 45.323181%)" offset="0.671875"/><stop stop-opacity="1" stop-color="rgb(34.098816%, 77.079773%, 45.175171%)" offset="0.675781"/><stop stop-opacity="1" stop-color="rgb(34.303284%, 77.186584%, 45.027161%)" offset="0.679688"/><stop stop-opacity="1" stop-color="rgb(34.507751%, 77.293396%, 44.87915%)" offset="0.683594"/><stop stop-opacity="1" stop-color="rgb(34.712219%, 77.401733%, 44.732666%)" offset="0.6875"/><stop stop-opacity="1" stop-color="rgb(34.915161%, 77.508545%, 44.584656%)" offset="0.691406"/><stop stop-opacity="1" stop-color="rgb(35.119629%, 77.615356%, 44.438171%)" offset="0.695313"/><stop stop-opacity="1" stop-color="rgb(35.324097%, 77.722168%, 44.290161%)" offset="0.699219"/><stop stop-opacity="1" stop-color="rgb(35.528564%, 77.828979%, 44.142151%)" offset="0.703125"/><stop stop-opacity="1" stop-color="rgb(35.733032%, 77.935791%, 43.994141%)" offset="0.707031"/><stop stop-opacity="1" stop-color="rgb(35.9375%, 78.042603%, 43.847656%)" offset="0.710938"/><stop stop-opacity="1" stop-color="rgb(36.141968%, 78.149414%, 43.699646%)" offset="0.714844"/><stop stop-opacity="1" stop-color="rgb(36.346436%, 78.256226%, 43.553162%)" offset="0.71875"/><stop stop-opacity="1" stop-color="rgb(36.549377%, 78.363037%, 43.405151%)" offset="0.722656"/><stop stop-opacity="1" stop-color="rgb(36.753845%, 78.471375%, 43.257141%)" offset="0.726563"/><stop stop-opacity="1" stop-color="rgb(36.958313%, 78.578186%, 43.109131%)" offset="0.730469"/><stop stop-opacity="1" stop-color="rgb(37.162781%, 78.684998%, 42.962646%)" offset="0.734375"/><stop stop-opacity="1" stop-color="rgb(37.367249%, 78.791809%, 42.814636%)" offset="0.738281"/><stop stop-opacity="1" stop-color="rgb(37.571716%, 78.898621%, 42.668152%)" offset="0.742188"/><stop stop-opacity="1" stop-color="rgb(37.774658%, 79.005432%, 42.520142%)" offset="0.746094"/><stop stop-opacity="1" stop-color="rgb(37.979126%, 79.112244%, 42.372131%)" offset="0.75"/><stop stop-opacity="1" stop-color="rgb(38.183594%, 79.219055%, 42.224121%)" offset="0.753906"/><stop stop-opacity="1" stop-color="rgb(38.388062%, 79.327393%, 42.077637%)" offset="0.757813"/><stop stop-opacity="1" stop-color="rgb(38.592529%, 79.434204%, 41.929626%)" offset="0.761719"/><stop stop-opacity="1" stop-color="rgb(38.796997%, 79.541016%, 41.783142%)" offset="0.765625"/><stop stop-opacity="1" stop-color="rgb(39.001465%, 79.647827%, 41.635132%)" offset="0.769531"/><stop stop-opacity="1" stop-color="rgb(39.205933%, 79.754639%, 41.487122%)" offset="0.773438"/><stop stop-opacity="1" stop-color="rgb(39.408875%, 79.86145%, 41.339111%)" offset="0.777344"/><stop stop-opacity="1" stop-color="rgb(39.613342%, 79.968262%, 41.192627%)" offset="0.78125"/><stop stop-opacity="1" stop-color="rgb(39.81781%, 80.075073%, 41.044617%)" offset="0.785156"/><stop stop-opacity="1" stop-color="rgb(40.022278%, 80.181885%, 40.898132%)" offset="0.789063"/><stop stop-opacity="1" stop-color="rgb(40.226746%, 80.288696%, 40.750122%)" offset="0.792969"/><stop stop-opacity="1" stop-color="rgb(40.431213%, 80.397034%, 40.602112%)" offset="0.796875"/><stop stop-opacity="1" stop-color="rgb(40.634155%, 80.503845%, 40.454102%)" offset="0.800781"/><stop stop-opacity="1" stop-color="rgb(40.838623%, 80.610657%, 40.307617%)" offset="0.804688"/><stop stop-opacity="1" stop-color="rgb(41.043091%, 80.717468%, 40.159607%)" offset="0.808594"/><stop stop-opacity="1" stop-color="rgb(41.247559%, 80.82428%, 40.013123%)" offset="0.8125"/><stop stop-opacity="1" stop-color="rgb(41.452026%, 80.931091%, 39.865112%)" offset="0.816406"/><stop stop-opacity="1" stop-color="rgb(41.656494%, 81.037903%, 39.718628%)" offset="0.820313"/><stop stop-opacity="1" stop-color="rgb(41.860962%, 81.144714%, 39.570618%)" offset="0.824219"/><stop stop-opacity="1" stop-color="rgb(42.06543%, 81.253052%, 39.422607%)" offset="0.828125"/><stop stop-opacity="1" stop-color="rgb(42.268372%, 81.359863%, 39.274597%)" offset="0.832031"/><stop stop-opacity="1" stop-color="rgb(42.472839%, 81.466675%, 39.128113%)" offset="0.835938"/><stop stop-opacity="1" stop-color="rgb(42.677307%, 81.573486%, 38.980103%)" offset="0.839844"/><stop stop-opacity="1" stop-color="rgb(42.881775%, 81.680298%, 38.833618%)" offset="0.84375"/><stop stop-opacity="1" stop-color="rgb(43.086243%, 81.787109%, 38.685608%)" offset="0.847656"/><stop stop-opacity="1" stop-color="rgb(43.29071%, 81.893921%, 38.537598%)" offset="0.851563"/><stop stop-opacity="1" stop-color="rgb(43.493652%, 82.000732%, 38.389587%)" offset="0.855469"/><stop stop-opacity="1" stop-color="rgb(43.69812%, 82.107544%, 38.243103%)" offset="0.859375"/><stop stop-opacity="1" stop-color="rgb(43.902588%, 82.214355%, 38.095093%)" offset="0.863281"/><stop stop-opacity="1" stop-color="rgb(44.107056%, 82.322693%, 37.948608%)" offset="0.867188"/><stop stop-opacity="1" stop-color="rgb(44.311523%, 82.429504%, 37.800598%)" offset="0.871094"/><stop stop-opacity="1" stop-color="rgb(44.515991%, 82.536316%, 37.652588%)" offset="0.875"/><stop stop-opacity="1" stop-color="rgb(44.718933%, 82.643127%, 37.504578%)" offset="0.878906"/><stop stop-opacity="1" stop-color="rgb(44.923401%, 82.749939%, 37.358093%)" offset="0.882812"/><stop stop-opacity="1" stop-color="rgb(45.127869%, 82.85675%, 37.210083%)" offset="0.886719"/><stop stop-opacity="1" stop-color="rgb(45.332336%, 82.963562%, 37.063599%)" offset="0.890625"/><stop stop-opacity="1" stop-color="rgb(45.536804%, 83.070374%, 36.915588%)" offset="0.894531"/><stop stop-opacity="1" stop-color="rgb(45.741272%, 83.177185%, 36.767578%)" offset="0.898438"/><stop stop-opacity="1" stop-color="rgb(45.94574%, 83.283997%, 36.619568%)" offset="0.902344"/><stop stop-opacity="1" stop-color="rgb(46.150208%, 83.392334%, 36.473083%)" offset="0.90625"/><stop stop-opacity="1" stop-color="rgb(46.353149%, 83.499146%, 36.325073%)" offset="0.910156"/><stop stop-opacity="1" stop-color="rgb(46.557617%, 83.605957%, 36.178589%)" offset="0.914062"/><stop stop-opacity="1" stop-color="rgb(46.762085%, 83.712769%, 36.030579%)" offset="0.917969"/><stop stop-opacity="1" stop-color="rgb(46.966553%, 83.81958%, 35.882568%)" offset="0.921875"/><stop stop-opacity="1" stop-color="rgb(47.171021%, 83.926392%, 35.734558%)" offset="0.925781"/><stop stop-opacity="1" stop-color="rgb(47.375488%, 84.033203%, 35.588074%)" offset="0.929687"/><stop stop-opacity="1" stop-color="rgb(47.57843%, 84.140015%, 35.440063%)" offset="0.933594"/><stop stop-opacity="1" stop-color="rgb(47.782898%, 84.248352%, 35.293579%)" offset="0.9375"/><stop stop-opacity="1" stop-color="rgb(47.987366%, 84.355164%, 35.145569%)" offset="0.941406"/><stop stop-opacity="1" stop-color="rgb(48.191833%, 84.461975%, 34.997559%)" offset="0.945312"/><stop stop-opacity="1" stop-color="rgb(48.396301%, 84.568787%, 34.849548%)" offset="0.949219"/><stop stop-opacity="1" stop-color="rgb(48.600769%, 84.675598%, 34.703064%)" offset="0.953125"/><stop stop-opacity="1" stop-color="rgb(48.805237%, 84.78241%, 34.555054%)" offset="0.957031"/><stop stop-opacity="1" stop-color="rgb(49.009705%, 84.889221%, 34.408569%)" offset="0.960937"/><stop stop-opacity="1" stop-color="rgb(49.209595%, 84.994507%, 34.263611%)" offset="0.964844"/><stop stop-opacity="1" stop-color="rgb(49.409485%, 85.099792%, 34.118652%)" offset="0.96875"/><stop stop-opacity="1" stop-color="rgb(49.409485%, 85.099792%, 34.118652%)" offset="1"/></linearGradient><clipPath id="8b8d0eaecd"><rect x="0" width="375" y="0" height="150"/></clipPath><clipPath id="943804af12"><rect x="0" width="375" y="0" height="150"/></clipPath><clipPath id="37c3af89f0"><rect x="0" width="375" y="0" height="150"/></clipPath><mask id="518a37c535"><g filter="url(#d8527efc56)"><g transform="matrix(1, 0, 0, 1, 0, -0.000000000000007527)"><g clip-path="url(#37c3af89f0)"><g transform="matrix(1, 0, 0, 1, 0, -0.000000000000007527)"><g clip-path="url(#943804af12)"><g fill="#000000" fill-opacity="1"><g transform="translate(9.062624, 77.160738)"><g><path d="M 42.859375 -39.6875 L 25.671875 0 L 16.609375 0 L -0.515625 -39.6875 L 9.40625 -39.6875 L 21.484375 -11.34375 L 33.734375 -39.6875 Z M 42.859375 -39.6875 "/></g></g></g><g fill="#000000" fill-opacity="1"><g transform="translate(48.228816, 77.160738)"><g><path d="M 4.703125 -39.6875 L 13.890625 -39.6875 L 13.890625 0 L 4.703125 0 Z M 4.703125 -39.6875 "/></g></g></g><g fill="#000000" fill-opacity="1"><g transform="translate(64.55252, 77.160738)"><g><path d="M 12.921875 -32.203125 L 0.234375 -32.203125 L 0.234375 -39.6875 L 34.8125 -39.6875 L 34.8125 -32.203125 L 22.109375 -32.203125 L 22.109375 0 L 12.921875 0 Z M 12.921875 -32.203125 "/></g></g></g><g fill="#000000" fill-opacity="1"><g transform="translate(95.329643, 77.160738)"><g><path d="M 30.84375 -8.5 L 12.421875 -8.5 L 8.90625 0 L -0.515625 0 L 17.171875 -39.6875 L 26.25 -39.6875 L 43.984375 0 L 34.359375 0 Z M 27.953125 -15.46875 L 21.65625 -30.671875 L 15.359375 -15.46875 Z M 27.953125 -15.46875 "/></g></g></g><g fill="#000000" fill-opacity="1"><g transform="translate(136.479849, 77.160738)"><g><path d="M 4.703125 -39.6875 L 13.890625 -39.6875 L 13.890625 -7.484375 L 33.78125 -7.484375 L 33.78125 0 L 4.703125 0 Z M 4.703125 -39.6875 "/></g></g></g><g fill="#000000" fill-opacity="1"><g transform="translate(168.447647, 77.160738)"><g><path d="M 29.984375 0 L 22.328125 -11.046875 L 13.890625 -11.046875 L 13.890625 0 L 4.703125 0 L 4.703125 -39.6875 L 21.875 -39.6875 C 25.394531 -39.6875 28.445312 -39.097656 31.03125 -37.921875 C 33.625 -36.753906 35.617188 -35.09375 37.015625 -32.9375 C 38.410156 -30.78125 39.109375 -28.226562 39.109375 -25.28125 C 39.109375 -22.332031 38.398438 -19.789062 36.984375 -17.65625 C 35.566406 -15.519531 33.554688 -13.882812 30.953125 -12.75 L 39.84375 0 Z M 29.8125 -25.28125 C 29.8125 -27.507812 29.09375 -29.21875 27.65625 -30.40625 C 26.226562 -31.601562 24.132812 -32.203125 21.375 -32.203125 L 13.890625 -32.203125 L 13.890625 -18.359375 L 21.375 -18.359375 C 24.132812 -18.359375 26.226562 -18.960938 27.65625 -20.171875 C 29.09375 -21.390625 29.8125 -23.09375 29.8125 -25.28125 Z M 29.8125 -25.28125 "/></g></g></g><g fill="#000000" fill-opacity="1"><g transform="translate(207.84072, 77.160738)"><g><path d="M 23.921875 0.6875 C 19.804688 0.6875 16.09375 -0.195312 12.78125 -1.96875 C 9.476562 -3.75 6.890625 -6.195312 5.015625 -9.3125 C 3.140625 -12.4375 2.203125 -15.945312 2.203125 -19.84375 C 2.203125 -23.726562 3.140625 -27.226562 5.015625 -30.34375 C 6.890625 -33.46875 9.476562 -35.914062 12.78125 -37.6875 C 16.09375 -39.46875 19.804688 -40.359375 23.921875 -40.359375 C 28.035156 -40.359375 31.738281 -39.46875 35.03125 -37.6875 C 38.320312 -35.914062 40.910156 -33.46875 42.796875 -30.34375 C 44.691406 -27.226562 45.640625 -23.726562 45.640625 -19.84375 C 45.640625 -15.945312 44.691406 -12.4375 42.796875 -9.3125 C 40.910156 -6.195312 38.320312 -3.75 35.03125 -1.96875 C 31.738281 -0.195312 28.035156 0.6875 23.921875 0.6875 Z M 23.921875 -7.140625 C 26.265625 -7.140625 28.378906 -7.675781 30.265625 -8.75 C 32.160156 -9.832031 33.644531 -11.335938 34.71875 -13.265625 C 35.800781 -15.191406 36.34375 -17.382812 36.34375 -19.84375 C 36.34375 -22.300781 35.800781 -24.492188 34.71875 -26.421875 C 33.644531 -28.347656 32.160156 -29.847656 30.265625 -30.921875 C 28.378906 -31.992188 26.265625 -32.53125 23.921875 -32.53125 C 21.578125 -32.53125 19.457031 -31.992188 17.5625 -30.921875 C 15.675781 -29.847656 14.191406 -28.347656 13.109375 -26.421875 C 12.035156 -24.492188 11.5 -22.300781 11.5 -19.84375 C 11.5 -17.382812 12.035156 -15.191406 13.109375 -13.265625 C 14.191406 -11.335938 15.675781 -9.832031 17.5625 -8.75 C 19.457031 -7.675781 21.578125 -7.140625 23.921875 -7.140625 Z M 23.921875 -7.140625 "/></g></g></g><g fill="#000000" fill-opacity="1"><g transform="translate(253.412075, 77.160738)"><g><path d="M 22.328125 0.6875 C 16.660156 0.6875 12.25 -0.878906 9.09375 -4.015625 C 5.9375 -7.160156 4.359375 -11.640625 4.359375 -17.453125 L 4.359375 -39.6875 L 13.546875 -39.6875 L 13.546875 -17.796875 C 13.546875 -10.691406 16.492188 -7.140625 22.390625 -7.140625 C 25.265625 -7.140625 27.457031 -8 28.96875 -9.71875 C 30.476562 -11.4375 31.234375 -14.128906 31.234375 -17.796875 L 31.234375 -39.6875 L 40.3125 -39.6875 L 40.3125 -17.453125 C 40.3125 -11.640625 38.734375 -7.160156 35.578125 -4.015625 C 32.421875 -0.878906 28.003906 0.6875 22.328125 0.6875 Z M 22.328125 0.6875 "/></g></g></g><g fill="#000000" fill-opacity="1"><g transform="translate(295.128999, 77.160738)"><g><path d="M 12.921875 -32.203125 L 0.234375 -32.203125 L 0.234375 -39.6875 L 34.8125 -39.6875 L 34.8125 -32.203125 L 22.109375 -32.203125 L 22.109375 0 L 12.921875 0 Z M 12.921875 -32.203125 "/></g></g></g><g fill="#000000" fill-opacity="1"><g transform="translate(327.890343, 77.160738)"><g><path d="M 35.4375 -7.375 L 35.4375 0 L 4.703125 0 L 4.703125 -39.6875 L 34.6875 -39.6875 L 34.6875 -32.3125 L 13.828125 -32.3125 L 13.828125 -23.703125 L 32.25 -23.703125 L 32.25 -16.546875 L 13.828125 -16.546875 L 13.828125 -7.375 Z M 35.4375 -7.375 "/></g></g></g></g></g></g></g></g></mask><clipPath id="6320bdcffb"><path d="M 0 0 L 375 0 L 375 150 L 0 150 Z M 0 0 " clip-rule="nonzero"/></clipPath><clipPath id="7d68f8bd34"><rect x="0" width="375" y="0" height="150"/></clipPath><clipPath id="9ddeaf9889"><rect x="0" width="375" y="0" height="150"/></clipPath><clipPath id="7ffd5817fe"><rect x="0" width="375" y="0" height="150"/></clipPath><clipPath id="897b148842"><rect x="0" width="298" y="0" height="34"/></clipPath></defs><g clip-path="url(#c8e86640aa)"><g transform="matrix(1, 0, 0, 1, 63, 60)"><g clip-path="url(#9e83a08998)"><g clip-path="url(#f7c2bfe1bc)"><path fill="#ffffff" d="M 0.976562 0.757812 L 18.109375 0.757812 L 18.109375 16.878906 L 0.976562 16.878906 Z M 0.976562 0.757812 " fill-opacity="1" fill-rule="nonzero"/></g></g></g></g><g transform="matrix(1, 0, 0, 1, 0, -0.000000000000007527)"><g clip-path="url(#7ffd5817fe)"><g transform="matrix(1, 0, 0, 1, 0, -0.000000000000007527)"><g clip-path="url(#9ddeaf9889)"><g mask="url(#518a37c535)"><g transform="matrix(1, 0, 0, 1, 0, -0.000000000000007527)"><g clip-path="url(#7d68f8bd34)"><g clip-path="url(#6320bdcffb)"><rect x="-201.3" fill="url(#f16d21394b)" width="777.6" height="311.039995" y="-80.519999"/></g></g></g></g></g></g></g></g><g transform="matrix(1, 0, 0, 1, 42, 82)"><g clip-path="url(#897b148842)"><g fill="#000000" fill-opacity="1"><g transform="translate(0.890706, 26.062729)"><g><path d="M 2.5 -18.609375 L 5.953125 -18.609375 L 5.953125 -2.921875 L 15.6875 -2.921875 L 15.6875 0 L 2.5 0 Z M 2.5 -18.609375 "/></g></g></g><g fill="#000000" fill-opacity="1"><g transform="translate(23.991114, 26.062729)"><g><path d="M 11.1875 0.265625 C 9.289062 0.265625 7.582031 -0.144531 6.0625 -0.96875 C 4.539062 -1.789062 3.34375 -2.929688 2.46875 -4.390625 C 1.601562 -5.859375 1.171875 -7.492188 1.171875 -9.296875 C 1.171875 -11.109375 1.601562 -12.742188 2.46875 -14.203125 C 3.34375 -15.671875 4.539062 -16.816406 6.0625 -17.640625 C 7.582031 -18.460938 9.289062 -18.875 11.1875 -18.875 C 13.082031 -18.875 14.789062 -18.460938 16.3125 -17.640625 C 17.84375 -16.816406 19.039062 -15.675781 19.90625 -14.21875 C 20.769531 -12.769531 21.203125 -11.128906 21.203125 -9.296875 C 21.203125 -7.472656 20.769531 -5.832031 19.90625 -4.375 C 19.039062 -2.925781 17.84375 -1.789062 16.3125 -0.96875 C 14.789062 -0.144531 13.082031 0.265625 11.1875 0.265625 Z M 11.1875 -2.765625 C 12.425781 -2.765625 13.539062 -3.039062 14.53125 -3.59375 C 15.53125 -4.15625 16.3125 -4.9375 16.875 -5.9375 C 17.445312 -6.9375 17.734375 -8.054688 17.734375 -9.296875 C 17.734375 -10.535156 17.445312 -11.65625 16.875 -12.65625 C 16.3125 -13.664062 15.53125 -14.445312 14.53125 -15 C 13.539062 -15.5625 12.425781 -15.84375 11.1875 -15.84375 C 9.945312 -15.84375 8.832031 -15.5625 7.84375 -15 C 6.851562 -14.445312 6.070312 -13.664062 5.5 -12.65625 C 4.9375 -11.65625 4.65625 -10.535156 4.65625 -9.296875 C 4.65625 -8.054688 4.9375 -6.9375 5.5 -5.9375 C 6.070312 -4.9375 6.851562 -4.15625 7.84375 -3.59375 C 8.832031 -3.039062 9.945312 -2.765625 11.1875 -2.765625 Z M 11.1875 -2.765625 "/></g></g></g><g fill="#000000" fill-opacity="1"><g transform="translate(53.550351, 26.062729)"><g><path d="M 15.203125 -9.515625 L 18.46875 -9.515625 L 18.46875 -2.09375 C 17.507812 -1.332031 16.390625 -0.75 15.109375 -0.34375 C 13.835938 0.0625 12.53125 0.265625 11.1875 0.265625 C 9.289062 0.265625 7.582031 -0.144531 6.0625 -0.96875 C 4.539062 -1.789062 3.34375 -2.925781 2.46875 -4.375 C 1.601562 -5.832031 1.171875 -7.472656 1.171875 -9.296875 C 1.171875 -11.128906 1.601562 -12.769531 2.46875 -14.21875 C 3.34375 -15.675781 4.546875 -16.816406 6.078125 -17.640625 C 7.609375 -18.460938 9.332031 -18.875 11.25 -18.875 C 12.800781 -18.875 14.210938 -18.613281 15.484375 -18.09375 C 16.765625 -17.582031 17.84375 -16.832031 18.71875 -15.84375 L 16.53125 -13.71875 C 15.113281 -15.132812 13.40625 -15.84375 11.40625 -15.84375 C 10.09375 -15.84375 8.925781 -15.566406 7.90625 -15.015625 C 6.882812 -14.460938 6.085938 -13.691406 5.515625 -12.703125 C 4.941406 -11.710938 4.65625 -10.578125 4.65625 -9.296875 C 4.65625 -8.054688 4.941406 -6.941406 5.515625 -5.953125 C 6.085938 -4.960938 6.882812 -4.179688 7.90625 -3.609375 C 8.925781 -3.046875 10.082031 -2.765625 11.375 -2.765625 C 12.832031 -2.765625 14.109375 -3.082031 15.203125 -3.71875 Z M 15.203125 -9.515625 "/></g></g></g><g fill="#000000" fill-opacity="1"><g transform="translate(81.249016, 26.062729)"><g><path d="M 2.5 -18.609375 L 5.953125 -18.609375 L 5.953125 0 L 2.5 0 Z M 2.5 -18.609375 "/></g></g></g><g fill="#000000" fill-opacity="1"><g transform="translate(96.907162, 26.062729)"><g><path d="M 8.265625 0.265625 C 6.828125 0.265625 5.4375 0.0625 4.09375 -0.34375 C 2.757812 -0.75 1.707031 -1.289062 0.9375 -1.96875 L 2.125 -4.65625 C 2.882812 -4.050781 3.816406 -3.554688 4.921875 -3.171875 C 6.035156 -2.796875 7.148438 -2.609375 8.265625 -2.609375 C 9.648438 -2.609375 10.679688 -2.828125 11.359375 -3.265625 C 12.046875 -3.710938 12.390625 -4.296875 12.390625 -5.015625 C 12.390625 -5.554688 12.195312 -6 11.8125 -6.34375 C 11.4375 -6.6875 10.953125 -6.953125 10.359375 -7.140625 C 9.773438 -7.335938 8.976562 -7.5625 7.96875 -7.8125 C 6.550781 -8.144531 5.40625 -8.476562 4.53125 -8.8125 C 3.65625 -9.15625 2.898438 -9.6875 2.265625 -10.40625 C 1.640625 -11.125 1.328125 -12.09375 1.328125 -13.3125 C 1.328125 -14.34375 1.601562 -15.273438 2.15625 -16.109375 C 2.71875 -16.953125 3.5625 -17.625 4.6875 -18.125 C 5.8125 -18.625 7.191406 -18.875 8.828125 -18.875 C 9.960938 -18.875 11.078125 -18.726562 12.171875 -18.4375 C 13.273438 -18.15625 14.222656 -17.75 15.015625 -17.21875 L 13.921875 -14.53125 C 13.109375 -15.007812 12.257812 -15.375 11.375 -15.625 C 10.488281 -15.875 9.628906 -16 8.796875 -16 C 7.429688 -16 6.414062 -15.769531 5.75 -15.3125 C 5.082031 -14.851562 4.75 -14.238281 4.75 -13.46875 C 4.75 -12.9375 4.941406 -12.503906 5.328125 -12.171875 C 5.710938 -11.835938 6.195312 -11.570312 6.78125 -11.375 C 7.363281 -11.175781 8.160156 -10.957031 9.171875 -10.71875 C 10.554688 -10.394531 11.691406 -10.0625 12.578125 -9.71875 C 13.460938 -9.375 14.21875 -8.84375 14.84375 -8.125 C 15.46875 -7.414062 15.78125 -6.460938 15.78125 -5.265625 C 15.78125 -4.234375 15.5 -3.300781 14.9375 -2.46875 C 14.382812 -1.632812 13.539062 -0.96875 12.40625 -0.46875 C 11.28125 0.0195312 9.898438 0.265625 8.265625 0.265625 Z M 8.265625 0.265625 "/></g></g></g><g fill="#000000" fill-opacity="1"><g transform="translate(120.804956, 26.062729)"><g><path d="M 6.265625 -15.6875 L 0.109375 -15.6875 L 0.109375 -18.609375 L 15.890625 -18.609375 L 15.890625 -15.6875 L 9.734375 -15.6875 L 9.734375 0 L 6.265625 0 Z M 6.265625 -15.6875 "/></g></g></g><g fill="#000000" fill-opacity="1"><g transform="translate(143.985105, 26.062729)"><g><path d="M 2.5 -18.609375 L 5.953125 -18.609375 L 5.953125 0 L 2.5 0 Z M 2.5 -18.609375 "/></g></g></g><g fill="#000000" fill-opacity="1"><g transform="translate(159.643251, 26.062729)"><g><path d="M 11.109375 0.265625 C 9.234375 0.265625 7.535156 -0.144531 6.015625 -0.96875 C 4.503906 -1.789062 3.316406 -2.925781 2.453125 -4.375 C 1.597656 -5.832031 1.171875 -7.472656 1.171875 -9.296875 C 1.171875 -11.128906 1.601562 -12.769531 2.46875 -14.21875 C 3.34375 -15.675781 4.535156 -16.816406 6.046875 -17.640625 C 7.554688 -18.460938 9.253906 -18.875 11.140625 -18.875 C 12.660156 -18.875 14.050781 -18.609375 15.3125 -18.078125 C 16.570312 -17.546875 17.632812 -16.773438 18.5 -15.765625 L 16.265625 -13.65625 C 14.921875 -15.113281 13.265625 -15.84375 11.296875 -15.84375 C 10.015625 -15.84375 8.867188 -15.5625 7.859375 -15 C 6.859375 -14.445312 6.070312 -13.671875 5.5 -12.671875 C 4.9375 -11.679688 4.65625 -10.554688 4.65625 -9.296875 C 4.65625 -8.046875 4.9375 -6.921875 5.5 -5.921875 C 6.070312 -4.929688 6.859375 -4.15625 7.859375 -3.59375 C 8.867188 -3.039062 10.015625 -2.765625 11.296875 -2.765625 C 13.265625 -2.765625 14.921875 -3.5 16.265625 -4.96875 L 18.5 -2.84375 C 17.632812 -1.832031 16.566406 -1.0625 15.296875 -0.53125 C 14.023438 0 12.628906 0.265625 11.109375 0.265625 Z M 11.109375 0.265625 "/></g></g></g><g fill="#000000" fill-opacity="1"><g transform="translate(186.145837, 26.062729)"><g><path d="M 8.265625 0.265625 C 6.828125 0.265625 5.4375 0.0625 4.09375 -0.34375 C 2.757812 -0.75 1.707031 -1.289062 0.9375 -1.96875 L 2.125 -4.65625 C 2.882812 -4.050781 3.816406 -3.554688 4.921875 -3.171875 C 6.035156 -2.796875 7.148438 -2.609375 8.265625 -2.609375 C 9.648438 -2.609375 10.679688 -2.828125 11.359375 -3.265625 C 12.046875 -3.710938 12.390625 -4.296875 12.390625 -5.015625 C 12.390625 -5.554688 12.195312 -6 11.8125 -6.34375 C 11.4375 -6.6875 10.953125 -6.953125 10.359375 -7.140625 C 9.773438 -7.335938 8.976562 -7.5625 7.96875 -7.8125 C 6.550781 -8.144531 5.40625 -8.476562 4.53125 -8.8125 C 3.65625 -9.15625 2.898438 -9.6875 2.265625 -10.40625 C 1.640625 -11.125 1.328125 -12.09375 1.328125 -13.3125 C 1.328125 -14.34375 1.601562 -15.273438 2.15625 -16.109375 C 2.71875 -16.953125 3.5625 -17.625 4.6875 -18.125 C 5.8125 -18.625 7.191406 -18.875 8.828125 -18.875 C 9.960938 -18.875 11.078125 -18.726562 12.171875 -18.4375 C 13.273438 -18.15625 14.222656 -17.75 15.015625 -17.21875 L 13.921875 -14.53125 C 13.109375 -15.007812 12.257812 -15.375 11.375 -15.625 C 10.488281 -15.875 9.628906 -16 8.796875 -16 C 7.429688 -16 6.414062 -15.769531 5.75 -15.3125 C 5.082031 -14.851562 4.75 -14.238281 4.75 -13.46875 C 4.75 -12.9375 4.941406 -12.503906 5.328125 -12.171875 C 5.710938 -11.835938 6.195312 -11.570312 6.78125 -11.375 C 7.363281 -11.175781 8.160156 -10.957031 9.171875 -10.71875 C 10.554688 -10.394531 11.691406 -10.0625 12.578125 -9.71875 C 13.460938 -9.375 14.21875 -8.84375 14.84375 -8.125 C 15.46875 -7.414062 15.78125 -6.460938 15.78125 -5.265625 C 15.78125 -4.234375 15.5 -3.300781 14.9375 -2.46875 C 14.382812 -1.632812 13.539062 -0.96875 12.40625 -0.46875 C 11.28125 0.0195312 9.898438 0.265625 8.265625 0.265625 Z M 8.265625 0.265625 "/></g></g></g><g fill="#000000" fill-opacity="1"><g transform="translate(210.04363, 26.062729)"><g/></g></g><g fill="#000000" fill-opacity="1"><g transform="translate(224.558848, 26.062729)"><g><path d="M 2.5 -18.609375 L 5.953125 -18.609375 L 5.953125 -2.921875 L 15.6875 -2.921875 L 15.6875 0 L 2.5 0 Z M 2.5 -18.609375 "/></g></g></g><g fill="#000000" fill-opacity="1"><g transform="translate(247.659256, 26.062729)"><g><path d="M 2.5 -18.609375 L 5.953125 -18.609375 L 5.953125 -2.921875 L 15.6875 -2.921875 L 15.6875 0 L 2.5 0 Z M 2.5 -18.609375 "/></g></g></g><g fill="#000000" fill-opacity="1"><g transform="translate(270.759663, 26.062729)"><g><path d="M 11.109375 0.265625 C 9.234375 0.265625 7.535156 -0.144531 6.015625 -0.96875 C 4.503906 -1.789062 3.316406 -2.925781 2.453125 -4.375 C 1.597656 -5.832031 1.171875 -7.472656 1.171875 -9.296875 C 1.171875 -11.128906 1.601562 -12.769531 2.46875 -14.21875 C 3.34375 -15.675781 4.535156 -16.816406 6.046875 -17.640625 C 7.554688 -18.460938 9.253906 -18.875 11.140625 -18.875 C 12.660156 -18.875 14.050781 -18.609375 15.3125 -18.078125 C 16.570312 -17.546875 17.632812 -16.773438 18.5 -15.765625 L 16.265625 -13.65625 C 14.921875 -15.113281 13.265625 -15.84375 11.296875 -15.84375 C 10.015625 -15.84375 8.867188 -15.5625 7.859375 -15 C 6.859375 -14.445312 6.070312 -13.671875 5.5 -12.671875 C 4.9375 -11.679688 4.65625 -10.554688 4.65625 -9.296875 C 4.65625 -8.046875 4.9375 -6.921875 5.5 -5.921875 C 6.070312 -4.929688 6.859375 -4.15625 7.859375 -3.59375 C 8.867188 -3.039062 10.015625 -2.765625 11.296875 -2.765625 C 13.265625 -2.765625 14.921875 -3.5 16.265625 -4.96875 L 18.5 -2.84375 C 17.632812 -1.832031 16.566406 -1.0625 15.296875 -0.53125 C 14.023438 0 12.628906 0.265625 11.109375 0.265625 Z M 11.109375 0.265625 "/></g></g></g></g></g></svg>