<svg xmlns="http://www.w3.org/2000/svg" xmlns:xlink="http://www.w3.org/1999/xlink" width="512" zoomAndPan="magnify" viewBox="0 0 384 383.999986" height="512" preserveAspectRatio="xMidYMid meet" version="1.0"><defs><clipPath id="a2b2914ed0"><path d="M 12.398438 115 L 371.648438 115 L 371.648438 259 L 12.398438 259 Z M 12.398438 115 " clip-rule="nonzero"/></clipPath><clipPath id="c6e4e90eaf"><path d="M 138 95.921875 L 337 95.921875 L 337 108 L 138 108 Z M 138 95.921875 " clip-rule="nonzero"/></clipPath><clipPath id="6a1e3fd34d"><path d="M 267 228 L 324 228 L 324 284.921875 L 267 284.921875 Z M 267 228 " clip-rule="nonzero"/></clipPath><clipPath id="a98a59be08"><path d="M 63 229 L 119 229 L 119 284.921875 L 63 284.921875 Z M 63 229 " clip-rule="nonzero"/></clipPath><clipPath id="baeaa21373"><path d="M 117.421875 173.929688 L 269.671875 173.929688 L 269.671875 287.929688 L 117.421875 287.929688 Z M 117.421875 173.929688 " clip-rule="nonzero"/></clipPath></defs><rect x="-38.4" width="460.8" fill="#ffffff" y="-38.399999" height="460.799983" fill-opacity="1"/><rect x="-38.4" width="460.8" fill="#ffffff" y="-38.399999" height="460.799983" fill-opacity="1"/><g clip-path="url(#a2b2914ed0)"><path fill="#00bf63" d="M 362.996094 188.671875 L 353.996094 188.671875 C 350.785156 188.671875 350.585938 193.585938 350.429688 196.015625 C 350.210938 199.371094 349.972656 211.988281 351.316406 214.261719 C 351.523438 214.621094 352.773438 215.945312 352.90625 215.945312 L 362.996094 215.945312 L 362.996094 231.488281 C 366.289062 232.953125 369.308594 232.902344 370.65625 236.917969 C 371.742188 240.148438 371.519531 250.75 370.191406 253.957031 C 368.988281 256.871094 366.910156 258.140625 363.816406 258.488281 L 330.8125 258.488281 C 331.851562 244.558594 322.914062 230.417969 310.285156 224.75 C 285.972656 213.828125 259.007812 232.019531 259.917969 258.488281 L 127.183594 258.410156 L 126.453125 257.683594 C 127.308594 243.277344 117.652344 229.265625 104.300781 224.027344 C 80.554688 214.707031 55.425781 232.382812 55.859375 257.589844 L 55.042969 258.40625 L 19.796875 258.351562 C 14.800781 257.074219 13.1875 253.867188 12.824219 248.960938 C 12.539062 245.109375 12.296875 237.097656 15.015625 234.199219 C 16.027344 233.117188 18.3125 232.796875 18.742188 231.382812 C 19.570312 228.628906 18.625 220.828125 18.824219 217.28125 C 19.21875 210.226562 21.265625 199.03125 25.164062 193.082031 C 32.046875 182.582031 51.6875 178.78125 59.1875 170.386719 C 72.425781 155.570312 83.128906 135.527344 96.542969 120.472656 C 100.789062 116.28125 106.082031 115.519531 111.808594 115.015625 L 345.699219 115.15625 C 350.316406 116.199219 354.183594 128.929688 355.503906 133.167969 C 360.734375 149.964844 363.777344 169.144531 363.441406 186.785156 C 363.425781 187.445312 363.023438 188.015625 362.996094 188.671875 Z M 170.3125 124.976562 C 167.949219 125.714844 167.378906 127.171875 167.167969 129.46875 C 165.96875 142.824219 168.132812 157.953125 167.183594 171.503906 C 167.539062 174.507812 169.460938 175.890625 172.351562 176.152344 C 195.027344 178.230469 220.839844 174.523438 243.847656 176.152344 C 247.085938 176.085938 248.746094 174.078125 249.027344 170.972656 C 250.234375 157.8125 248.066406 142.84375 249.015625 129.484375 C 248.828125 126.855469 246.515625 124.722656 243.847656 124.835938 L 170.308594 124.976562 Z M 263.027344 124.976562 C 260.25 125.902344 259.59375 127.886719 259.347656 130.566406 C 258.421875 140.535156 259.386719 153.75 259.9375 163.832031 C 260.179688 168.3125 258.078125 175.4375 264.523438 175.609375 L 338.191406 175.59375 C 343.808594 174.71875 343.578125 170.722656 343.355469 166.042969 C 342.96875 157.984375 340.722656 146.882812 338.828125 138.9375 C 335.089844 123.246094 333.691406 126.570312 319.066406 125.96875 C 300.480469 125.207031 281.691406 124.988281 263.027344 124.972656 Z M 120.722656 125.566406 C 116.972656 125.703125 111.453125 125.519531 108.066406 126 C 106.355469 126.242188 104.636719 127.238281 103.390625 128.410156 L 74.03125 168.320312 C 71.296875 172.304688 73.304688 176 77.992188 176.15625 C 99.421875 174.625 123.472656 178.097656 144.585938 176.15625 C 148.335938 175.808594 149.425781 174.019531 149.761719 170.425781 C 150.664062 160.773438 150.691406 140.191406 149.765625 130.5625 C 149.496094 127.722656 148.675781 125.757812 145.65625 125.398438 C 138.816406 124.585938 127.890625 125.308594 120.71875 125.570312 Z M 126.121094 189.867188 C 123.648438 190.988281 123.484375 195.957031 126.121094 196.75 C 127.652344 197.207031 142.425781 197.167969 144.585938 196.878906 C 148.308594 196.382812 147.601562 190.476562 145.542969 189.871094 Z M 170.828125 189.851562 C 169 190.46875 168.507812 196.054688 170.847656 196.742188 C 172.449219 197.214844 187.109375 197.167969 189.308594 196.878906 C 193.03125 196.382812 192.320312 190.476562 190.265625 189.871094 Z M 24.300781 218.667969 L 34.9375 218.667969 C 36.890625 218.667969 40.894531 215.992188 42 214.277344 C 43.527344 211.910156 45.753906 201.101562 43.808594 199.160156 C 28.191406 195.035156 23.386719 204.855469 24.300781 218.667969 Z M 24.300781 218.667969 " fill-opacity="1" fill-rule="nonzero"/></g><g clip-path="url(#c6e4e90eaf)"><path fill="#00bf63" d="M 336.816406 107.40625 L 138.289062 107.40625 C 140.832031 101.722656 145.992188 97.113281 152.195312 95.949219 L 327.296875 95.925781 C 332.945312 96.292969 335.765625 102.5625 336.8125 107.40625 Z M 336.816406 107.40625 " fill-opacity="1" fill-rule="nonzero"/></g><g clip-path="url(#6a1e3fd34d)"><path fill="#00bf63" d="M 291.96875 229.179688 C 321.953125 225.808594 335.265625 265.347656 310.046875 280.527344 C 285.222656 295.46875 256.773438 267.800781 271.476562 242.5 C 275.628906 235.351562 283.726562 230.109375 291.96875 229.179688 Z M 292.496094 243.886719 C 289.972656 244.3125 286.691406 246.46875 285.097656 248.484375 C 275.953125 260.03125 289.542969 275.921875 302.296875 268.414062 C 314.789062 261.054688 308.238281 241.21875 292.496094 243.886719 Z M 292.496094 243.886719 " fill-opacity="1" fill-rule="nonzero"/></g><g clip-path="url(#a98a59be08)"><path fill="#00bf63" d="M 88 229.191406 C 122.144531 225.570312 130.820312 274.519531 99.308594 283.589844 C 60.277344 294.824219 48.78125 233.351562 88 229.191406 Z M 87.96875 243.886719 C 84.929688 244.398438 80.945312 247.453125 79.472656 250.117188 C 73.417969 261.050781 83.976562 273.738281 95.589844 269.503906 C 110.597656 264.03125 105.625 240.90625 87.96875 243.886719 Z M 87.96875 243.886719 " fill-opacity="1" fill-rule="nonzero"/></g><g clip-path="url(#baeaa21373)"><path fill="#ffffff" d="M 191.886719 288.082031 L 181.21875 288.070312 L 163.617188 230.117188 L 156.410156 243.148438 L 151.53125 246.023438 L 117.554688 246.023438 L 117.554688 234.871094 L 148.242188 234.871094 L 160.242188 213.179688 L 170.457031 214.257812 L 186.578125 267.34375 L 215.203125 173.992188 L 225.851562 173.953125 L 245.011719 234.871094 L 269.667969 234.871094 L 269.667969 246.023438 L 240.917969 246.023438 L 235.597656 242.121094 L 220.601562 194.429688 Z M 191.886719 288.082031 " fill-opacity="1" fill-rule="nonzero"/></g></svg>